<svg width="512" height="512" viewBox="0 0 512 512" fill="none" xmlns="http://www.w3.org/2000/svg">
  <defs>
    <linearGradient id="bg" x1="80" y1="44" x2="440" y2="468" gradientUnits="userSpaceOnUse">
      <stop stop-color="#0F172A"/>
      <stop offset="0.52" stop-color="#1E293B"/>
      <stop offset="1" stop-color="#334155"/>
    </linearGradient>
    <linearGradient id="face" x1="170" y1="132" x2="352" y2="380" gradientUnits="userSpaceOnUse">
      <stop stop-color="#FFD8A8"/>
      <stop offset="1" stop-color="#E5B07A"/>
    </linearGradient>
    <linearGradient id="shirt" x1="154" y1="304" x2="358" y2="428" gradientUnits="userSpaceOnUse">
      <stop stop-color="#F59E0B"/>
      <stop offset="1" stop-color="#FACC15"/>
    </linearGradient>
    <radialGradient id="glow" cx="0" cy="0" r="1" gradientUnits="userSpaceOnUse" gradientTransform="translate(256 156) rotate(90) scale(176 164)">
      <stop stop-color="#FFF7D6" stop-opacity="0.9"/>
      <stop offset="1" stop-color="#FFF7D6" stop-opacity="0"/>
    </radialGradient>
  </defs>
  <circle cx="256" cy="256" r="256" fill="url(#bg)"/>
  <circle cx="256" cy="160" r="150" fill="url(#glow)"/>
  <circle cx="256" cy="256" r="224" stroke="rgba(255,255,255,0.08)" stroke-width="8"/>
  <path d="M126 402C136 348 184 312 256 312C328 312 376 348 386 402C337 450 301 468 256 468C211 468 175 450 126 402Z" fill="url(#shirt)"/>
  <path d="M174 208C174 160 212 126 256 126C300 126 338 160 338 208V244C338 288 300 324 256 324C212 324 174 288 174 244V208Z" fill="url(#face)"/>
  <path d="M164 202C170 158 212 118 256 118C303 118 345 156 348 205C323 190 300 183 256 183C214 183 188 190 164 202Z" fill="#E9B37C"/>
  <path d="M186 184C198 154 226 140 256 140C285 140 314 154 326 184C320 190 314 194 304 200C287 189 274 182 256 182C239 182 223 187 208 200C198 195 191 190 186 184Z" fill="#111827"/>
  <circle cx="219" cy="232" r="10" fill="#1F2937"/>
  <circle cx="293" cy="232" r="10" fill="#1F2937"/>
  <path d="M226 263C238 274 274 274 286 263" stroke="#7C4A12" stroke-width="8" stroke-linecap="round"/>
  <path d="M206 215C216 204 225 201 236 201" stroke="rgba(255,255,255,0.42)" stroke-width="6" stroke-linecap="round"/>
  <path d="M276 201C288 201 298 205 307 215" stroke="rgba(255,255,255,0.42)" stroke-width="6" stroke-linecap="round"/>
</svg>
